<?xml version="1.0" encoding="UTF-8"?>
<svg width="123px" height="114px" viewBox="0 0 123 114" version="1.1" xmlns="http://www.w3.org/2000/svg" xmlns:xlink="http://www.w3.org/1999/xlink">
    <!-- Generator: Sketch 55.1 (78136) - https://sketchapp.com -->
    <title>Untitled</title>
    <desc>Created with Sketch.</desc>
    <g id="Page-1" stroke="none" stroke-width="1" fill="none" fill-rule="evenodd">
        <g id="icons">
            <g>
                <g id="Group">
                    <g>
                        <g>
                            <g>
                                <g id="建议">
                                    <rect id="矩形" x="0" y="0" width="14" height="14"></rect>
                                    <path d="M11.3272071,5.01503022 L11.6015368,5.01503022 C11.6742935,5.01503022 11.7440703,5.04393272 11.7955171,5.09537951 C11.8469639,5.14682629 11.8758664,5.21660311 11.8758664,5.28935985 L11.8758664,12.3868158 C11.8758664,12.5383239 11.7530448,12.6611454 11.6015368,12.6611454 L2.27432962,12.6611454 C2.20157288,12.6611454 2.13179607,12.6322429 2.08034928,12.5807961 C2.0289025,12.5293494 2,12.4595726 2,12.3868158 L2,1.68796058 C2,1.61520384 2.0289025,1.54542703 2.08034928,1.49398024 C2.13179606,1.44253345 2.20157288,1.41363095 2.27432962,1.41363095 L9.03929808,1.41363095 C9.11205482,1.41363095 9.18183164,1.44253345 9.23327843,1.49398023 C9.28472521,1.54542702 9.31362771,1.61520384 9.31362771,1.68796058 L9.31362771,1.9622902 C9.31362771,2.03504694 9.28472521,2.10482375 9.23327842,2.15627053 C9.18183164,2.20771732 9.11205482,2.23661982 9.03929808,2.23661981 L2.82298886,2.23661981 L2.82298886,11.8381566 L11.0528775,11.8381566 L11.0528775,5.29045716 C11.0528775,5.1389491 11.1756991,5.01612755 11.3272071,5.01612755 L11.3272071,5.01503022 Z M12.667033,1.08004613 L12.8612584,1.27427151 C12.9128552,1.32573808 12.941853,1.39561997 12.941853,1.46849688 C12.941853,1.54137378 12.9128552,1.61125568 12.8612584,1.66272225 L7.42953186,7.09444875 C7.32246931,7.20117693 7.149241,7.20117693 7.04217845,7.09444875 L6.84795307,6.90022338 C6.79635622,6.84875681 6.76735844,6.77887492 6.76735844,6.70599801 C6.76735844,6.63312111 6.79635622,6.56323921 6.84795307,6.51177264 L12.2796796,1.08004613 C12.3867421,0.973317955 12.5599704,0.973317955 12.667033,1.08004613 Z M4.33180178,9.5074521 L9.54406459,9.5074521 C9.69557266,9.5074521 9.81839421,9.63027366 9.81839421,9.78178172 L9.81839421,10.0561114 C9.81839421,10.2076194 9.69557266,10.330441 9.54406459,10.330441 L4.33180178,10.330441 C4.18029371,10.330441 4.05747216,10.2076194 4.05747216,10.0561114 L4.05747216,9.78178172 C4.05747216,9.63027366 4.18029371,9.5074521 4.33180178,9.5074521 Z M4.46896659,7.72430956 L5.56628507,7.72430956 C5.63904182,7.72430956 5.70881863,7.75321206 5.76026542,7.80465885 C5.81171221,7.85610563 5.8406147,7.92588245 5.8406147,7.99863919 L5.8406147,8.27296881 C5.8406147,8.34572555 5.8117122,8.41550236 5.76026541,8.46694915 C5.70881863,8.51839593 5.63904181,8.54729843 5.56628507,8.54729843 L4.46896659,8.54729843 C4.31745853,8.54729843 4.19463698,8.42447687 4.19463698,8.27296881 L4.19463698,7.99863919 C4.19463698,7.92588245 4.22353947,7.85610564 4.27498626,7.80465885 C4.32643304,7.75321206 4.39620985,7.72430956 4.46896659,7.72430956 L4.46896659,7.72430956 Z" id="形状" fill="#FFFFFF" fill-rule="nonzero"></path>
                                </g>
                                <g id="收藏(2)" transform="translate(14.000000, 0.000000)" fill-rule="nonzero">
                                    <rect id="矩形" fill="#000000" opacity="0" x="0" y="0" width="11.2" height="11.2"></rect>
                                    <path d="M5.6175,1.75 C5.61194455,1.74745366 5.60555545,1.74745366 5.6,1.75 L4.5885,3.808 C4.48329906,4.02613479 4.27282043,4.17439646 4.032,4.2 L1.7675,4.55 C1.76146267,4.55292401 1.75762807,4.55904185 1.75762807,4.56575 C1.75762807,4.57245815 1.76146267,4.57857599 1.7675,4.5815 L3.409,6.1845 C3.57750232,6.35040799 3.65343771,6.58868804 3.612,6.8215 L3.227,9.086 L3.2515,9.086 L5.2745,8.036 C5.48538685,7.92760542 5.73561315,7.92760542 5.9465,8.036 L7.9695,9.086 L7.994,9.086 L7.609,6.8215 C7.56522111,6.58787848 7.64298277,6.34800354 7.8155,6.1845 L9.45,4.5745 C9.45667,4.56769524 9.45667,4.55680476 9.45,4.55 L7.1855,4.2 C6.95116562,4.16873503 6.74844429,4.02130134 6.6465,3.808 L5.6175,1.75 Z M7.2555,3.5 L9.53400608,3.85 C9.80501088,3.88851512 10.0304938,4.0778766 10.1152693,4.33815227 C10.2000448,4.59842794 10.1293399,4.88426206 9.933,5.075 L8.2915,6.678 C8.2915,6.678 8.4175,7.441 8.673,8.96 C8.73816925,9.23572376 8.63070756,9.52354198 8.40078307,9.6890876 C8.17085859,9.85463323 7.86381711,9.8652573 7.623,9.716 L5.6,8.6485 C5.6,8.6485 4.9175,8.9985 3.5595,9.716 C3.31868289,9.8652573 3.01164141,9.85463323 2.78171693,9.6890876 C2.55179244,9.52354198 2.44433075,9.23572376 2.5095,8.96 L2.8945,6.6955 C2.8945,6.6955 2.3485,6.1495 1.2495,5.075 C1.05229918,4.88187252 0.983366593,4.59274614 1.0722178,4.33141905 C1.16106901,4.07009196 1.39194919,3.88290192 1.666,3.85 L3.9305,3.5175 C3.9305,3.5175 4.2805,2.8175 4.956,1.4525 C5.06596178,1.19437267 5.31942681,1.02684285 5.6,1.02684285 C5.88057319,1.02684285 6.13403822,1.19437267 6.244,1.4525 L7.2555,3.5 Z" id="形状" fill="#999999"></path>
                                </g>
                                <g id="查看(2)" transform="translate(26.000000, 0.000000)" fill-rule="nonzero">
                                    <rect id="矩形" fill="#000000" opacity="0" x="0" y="0" width="11.2" height="11.2"></rect>
                                    <path d="M10.45625,6.833225 C9.270975,8.435525 7.53655,9.4486 5.6,9.4486 C3.663625,9.4486 1.9292,8.435525 0.74375,6.833225 C0.220325,6.125875 0.220325,5.074475 0.74375,4.36695 C1.9292,2.76465 3.663625,1.751575 5.6,1.751575 C7.53655,1.751575 9.270975,2.76465 10.45625,4.36695 C10.979675,5.074475 10.979675,6.125875 10.45625,6.833225 Z M9.92985,4.94795 C8.830325,3.3614 7.2478,2.451575 5.5881,2.451575 C3.9284,2.451575 2.345875,3.3614 1.24635,4.94795 C0.984375,5.32595 0.984375,5.874575 1.24635,6.252575 C2.345875,7.839125 3.9284,8.749125 5.5881,8.749125 C7.2478,8.749125 8.830325,7.839125 9.92985,6.2524 C10.191825,5.874575 10.191825,5.32595 9.92985,4.94795 Z M5.6035,8.048075 C4.2504,8.048075 3.1535,6.951175 3.1535,5.598075 C3.1535,4.244975 4.2504,3.148075 5.6035,3.148075 C6.9566,3.148075 8.0535,4.244975 8.0535,5.598075 C8.0535,6.951175 6.9566,8.048075 5.6035,8.048075 Z M5.6035,3.848075 C4.636975,3.848075 3.8535,4.63155 3.8535,5.598075 C3.8535,6.5646 4.636975,7.348075 5.6035,7.348075 C6.570025,7.348075 7.3535,6.5646 7.3535,5.598075 C7.3535,4.63155 6.570025,3.848075 5.6035,3.848075 Z" id="形状" fill="#999999"></path>
                                </g>
                                <g id="点赞(2)" transform="translate(38.000000, 0.000000)" fill-rule="nonzero">
                                    <rect id="矩形" fill="#000000" opacity="0" x="0" y="0" width="11.2" height="11.2"></rect>
                                    <path d="M9.79703659,5.14633394 C9.80014718,5.18332881 9.7972888,5.22136919 9.78682209,5.25924872 L9.03078068,8.45154424 C9.02036594,8.48866056 9.00334507,8.52378313 8.98046479,8.55537115 C8.89950539,8.71006601 8.77638489,8.8468264 8.61265859,8.94643107 C8.44672813,9.04736391 8.25400928,9.10063435 8.05737631,9.09991958 L8.05737631,9.09790899 L3.20115748,9.09593861 C3.18417534,9.09835132 3.16702506,9.1 3.14932833,9.1 C3.13158956,9.1 3.11431318,9.09839153 3.09720494,9.09589839 L1.80546956,9.09537564 C1.78709054,9.09833214 1.76849388,9.09987852 1.74985726,9.1 C1.65706934,9.1 1.56808178,9.06473886 1.50247082,9.00197363 C1.43685986,8.9392084 1.4,8.85408048 1.4,8.76531705 L1.40319466,4.74719144 C1.40320581,4.65841734 1.44008078,4.57328343 1.50570751,4.5105182 C1.57133424,4.44775297 1.66033693,4.41249782 1.75313599,4.41250849 C1.76755399,4.41250849 1.78171978,4.41359421 1.79571744,4.41524289 L2.95685009,4.41266933 L2.95685009,4.40635608 C4.02516947,4.33321078 4.87171223,3.49539757 4.90193539,2.46175282 C4.89920311,2.43267967 4.89731154,2.40344568 4.89731154,2.37368894 C4.89731154,1.83593631 5.35297088,1.4 5.91514689,1.4 C6.39821305,1.4 6.80179103,1.7222575 6.90603782,2.15401178 L6.91116609,2.15336839 C6.96983289,2.40463627 6.99951889,2.66130095 6.99969178,2.91876012 C7.00003639,3.31264096 6.93082591,3.7037477 6.79498136,4.07557367 L8.74784313,4.07758426 C8.76579208,4.07758426 8.7833627,4.07931337 8.80063909,4.08184671 C9.13406066,4.09435259 9.45520802,4.25861786 9.64440753,4.55031438 C9.76017818,4.72843244 9.81363814,4.93719466 9.79703659,5.14633394 L9.79703659,5.14633394 Z M2.1000508,8.42613037 L2.79976531,8.42641185 L2.80237148,5.08239715 L2.10332953,5.08388498 L2.1000508,8.42613037 Z M9.05385789,4.89999634 C8.98887772,4.79972759 8.8718625,4.74139053 8.74872587,4.74787504 L8.74872587,4.74690996 L8.74788517,4.74690996 L6.27938012,4.74445704 C6.08614569,4.74441263 5.92952286,4.59454696 5.92952286,4.40969366 C5.92952286,4.35649343 5.94288999,4.30630908 5.96600924,4.26163375 L5.96226812,4.25869829 C6.10402135,4.00588056 6.20487505,3.73395947 6.26138914,3.45221008 L6.26576078,3.45233072 C6.26576078,3.45233072 6.31229352,3.2715786 6.311663,2.92495274 C6.31120061,2.65030603 6.25886704,2.39962556 6.25886704,2.39962556 L6.25621884,2.39962556 C6.25647105,2.39480014 6.25705954,2.39001494 6.25705954,2.38506888 C6.25705954,2.2121878 6.11055752,2.07203999 5.92983812,2.07203999 C5.74911873,2.07203999 5.60261671,2.2121878 5.60261671,2.38506888 C5.60261671,2.39230701 5.60328927,2.3994245 5.60375165,2.40654199 L5.59921187,2.4065822 C5.59921187,2.4065822 5.60476049,2.66787859 5.55024111,2.93890624 C5.52707982,3.05387182 5.49454474,3.16107653 5.46491007,3.24600389 C5.46434725,3.24574034 5.46378676,3.24547225 5.46322867,3.24519965 C5.16868946,4.10645635 4.428201,4.77405293 3.50284263,4.99895763 L3.49947983,8.42665312 L8.05901568,8.42842244 C8.07444252,8.42842244 8.08949105,8.42970922 8.10437144,8.43163939 C8.15125884,8.42567878 8.19621931,8.40999247 8.23610911,8.38567728 C8.29251344,8.35146135 8.33654176,8.30146647 8.36221409,8.242483 L8.36313886,8.24296554 L9.09105886,5.16945573 L9.08824252,5.16865149 C9.1185989,5.07862978 9.10602367,4.9803913 9.05385789,4.90003656 L9.05385789,4.89999634 Z" id="形状" fill="#999999"></path>
                                </g>
                                <g id="编组-14" transform="translate(0.000000, 15.000000)" fill-rule="nonzero">
                                    <circle id="椭圆形备份" fill="#0099FF" cx="13" cy="13" r="13"></circle>
                                    <polygon id="路径" fill="#FFFFFF" points="13.7874118 11.2390822 15.1604347 5.5 9 12.9412506 12.2125882 13.7602118 10.8402141 19.5 17 12.0580434"></polygon>
                                </g>
                                <g id="评论(2)" transform="translate(50.000000, 0.000000)" fill-rule="nonzero">
                                    <rect id="矩形" fill="#000000" opacity="0" x="0" y="0" width="11.2" height="11.2"></rect>
                                    <path d="M3.07929293,4.23676767 C2.73141414,4.23676767 2.44858586,4.52949494 2.44858586,4.890101 C2.44858586,5.25070707 2.73141414,5.54343435 3.07929293,5.54343435 C3.42717173,5.54343435 3.71,5.25070708 3.71,4.890101 C3.71,4.5280808 3.42717172,4.23676767 3.07929293,4.23676767 Z M5.60070707,4.23676767 C5.25282827,4.23676767 4.97,4.52949494 4.97,4.890101 C4.97,5.25070707 5.25141414,5.54343435 5.60070707,5.54343435 C5.94858586,5.54343435 6.23,5.25070708 6.23,4.890101 C6.23,4.5280808 5.94717172,4.23676767 5.60070707,4.23676767 Z M8.12070707,4.23676767 C7.77282827,4.23676767 7.49,4.52949494 7.49,4.890101 C7.49,5.25070707 7.77282828,5.54343435 8.12070707,5.54343435 C8.46858585,5.54343435 8.75141414,5.25070708 8.75141414,4.890101 C8.75,4.5280808 8.46858586,4.23676767 8.12070707,4.23676767 L8.12070707,4.23676767 Z M9.38070707,1.28121212 L1.81929293,1.28121212 C1.12353536,1.28121212 0.559292934,1.86666667 0.559292934,2.58929293 L0.559292934,6.86565657 C0.559292934,7.58686869 1.13626263,8.2529293 1.84757576,8.25292929 L3.7679798,8.25292929 C4.10171717,8.60929292 5.48757576,9.89333333 5.48757576,9.89333333 C5.54838384,9.9569697 5.64878788,9.9569697 5.70959596,9.89333333 C5.70959596,9.89333333 6.72494949,8.89353535 7.38535353,8.25292929 L9.3510101,8.25292929 C10.0623232,8.25292929 10.6393138,7.58686868 10.6393138,6.86565657 L10.6393138,2.58787879 C10.6407071,1.86666667 10.0764647,1.28121212 9.38070707,1.28121212 Z M10.01,6.86565657 C10.01,7.22626263 9.70737374,7.60525253 9.3510101,7.60525253 L7.41929293,7.60525253 C7.18454546,7.60525253 6.97383839,7.84565657 6.97383839,7.84565657 L5.61626263,9.10282828 L4.25868687,7.84565657 C4.25868687,7.84565657 3.999899,7.60525253 3.77929293,7.60525253 L1.84757576,7.60525253 C1.49121212,7.60525253 1.18858586,7.22626263 1.18858586,6.86565657 L1.18858586,2.58787879 C1.18858586,2.22727273 1.47,1.93454545 1.81929293,1.93454545 L9.38070707,1.93454545 C9.72858586,1.93454545 10.01,2.22727272 10.01,2.58787879 L10.01,6.86565657 L10.01,6.86565657 Z" id="形状" fill="#999999"></path>
                                </g>
                                <g id="编组-16" transform="translate(28.000000, 15.000000)" fill-rule="nonzero">
                                    <circle id="椭圆形" fill="#0099FF" cx="13" cy="13" r="13"></circle>
                                    <path d="M19,18.2 L19,19 L7,19 L7,18.2 L19,18.2 Z M13.6306403,9.03185167 L15.6701642,10.8802125 L9.90509427,16.8139881 L9.90511403,16.8146779 L9.90442263,16.8146982 L7,17.8309081 L7.86562967,14.9662968 L7.86560992,14.9656272 L7.86632107,14.9656069 L13.6306403,9.03185167 Z M15.6467752,7 L17.6700018,8.86666328 L16.3946302,10.1568615 L14.3713444,8.29021851 L15.6467752,7 Z" id="形状结合" fill="#FFFFFF"></path>
                                </g>
                                <g id="编组-19" transform="translate(56.000000, 15.000000)" fill-rule="nonzero">
                                    <path d="M13,26 C5.85,26 0,20.15 0,13 C0,5.85 5.85,0 13,0 C20.15,0 26,5.85 26,13 C26,20.15 20.15,26 13,26 Z" id="形状" fill="#0099FF"></path>
                                    <path d="M17.6428571,9.37857143 L11.05,15.0428571 L8.45,12.1642857 C7.98571429,11.6071429 7.33571429,11.6071429 6.96428571,12.1642857 C6.5,12.7214286 6.5,13.3714286 6.96428571,13.7428571 L10.1214286,17.3642857 C10.3071429,17.55 10.5857143,17.7357143 10.9571429,17.7357143 C11.1428571,17.7357143 11.4214286,17.7357143 11.6071429,17.55 L18.85,11.2357143 C19.3142857,10.8642857 19.3142857,10.2142857 19.0357143,9.65714286 C18.7571429,9.28571429 18.1071429,9.1 17.6428571,9.37857143 Z" id="路径" fill="#FFFFFF"></path>
                                </g>
                                <g id="编组-20" transform="translate(84.000000, 15.000000)" fill-rule="nonzero">
                                    <circle id="椭圆形备份-3" fill="#0099FF" cx="13" cy="13" r="13"></circle>
                                    <g id="奖励" transform="translate(8.000000, 8.000000)" fill="#FFFFFF">
                                        <path d="M5.7743125,1.8234795 L7.079875,0.389388212 C7.4806875,0.0406993491 7.9619375,-0.0639739808 8.4363125,0.201376244 C8.779375,0.396055304 9.0564375,0.848750788 9.0564375,1.21810763 L9.0564375,2.16483457 L5.7743125,2.16483457 L5.7743125,1.8234795 L5.7743125,1.8234795 Z M5.2270625,1.85148129 L4.0095,0.400055558 C3.586,0.0733680954 2.959,-0.167313892 2.5210625,0.146039388 C2.2075625,0.36872023 1.9449375,0.849417497 1.9449375,1.21877434 L1.9449375,2.16550128 L5.2270625,2.16550128 L5.2270625,1.85214799 L5.2270625,1.85148129 Z M5.7743125,2.16483457 L10.3159375,2.15550064 C10.71675,2.15550064 11,2.42485112 11,2.79420796 L11,3.59425889 C11,3.96361574 10.6005625,4.23429964 10.1921875,4.23429964 L5.775,4.25296749 L5.775,2.16483457 L5.7743125,2.16483457 L5.7743125,2.16483457 Z M5.2270625,2.16483457 L0.7706875,2.16483457 C0.369875,2.16483457 0,2.37284781 0,2.73487085 L0,3.53558849 C0,3.90494534 0.3031875,4.25430091 0.7046875,4.25430091 L5.2270625,4.25430091 L5.2270625,2.16483457 Z M5.8320625,4.77700085 L10.15025,4.77700085 L10.15025,9.33862457 C10.15025,9.7073147 9.8223125,10 9.4215,10 L5.820375,10 L5.8320625,4.77700085 Z M5.2270625,4.77700085 L0.851125,4.77700085 L0.851125,9.33862457 C0.851125,9.7073147 1.1790625,10 1.579875,10 L5.2201875,10 L5.2270625,4.77700085 L5.2270625,4.77700085 Z" id="形状"></path>
                                    </g>
                                </g>
                                <g id="编组-16" transform="translate(0.000000, 42.000000)">
                                    <rect id="矩形" x="0" y="0" width="12" height="12"></rect>
                                    <path d="M8.46856496,1.99999914 C8.35626929,1.99999914 8.24280388,2.03743103 8.14805441,2.11229481 L3.19066866,6.09996069 C3.07018477,6.19704965 2.99999998,6.34326797 2.99999998,6.49884426 C2.99999998,6.6532508 3.07018477,6.80063886 3.19066866,6.89655807 L8.12699898,10.8631685 C8.34691132,11.0398002 8.66859162,11.0047078 8.84522334,10.7847955 C9.02185506,10.5648831 8.98676267,10.2432028 8.76685032,10.0665711 L4.32649253,6.49884426 L8.78907551,2.90889219 C9.00898785,2.73226046 9.04408025,2.41058017 8.86744852,2.19066782 C8.76568058,2.06550495 8.61829251,1.99999914 8.46856496,1.99999914 L8.46856496,1.99999914 Z" id="Shape" fill="#666666" fill-rule="nonzero" transform="translate(5.990000, 6.487860) rotate(180.000000) translate(-5.990000, -6.487860) "></path>
                                </g>
                                <g id="编组-17" transform="translate(11.000000, 42.000000)">
                                    <rect id="矩形" x="0" y="0" width="12" height="12"></rect>
                                    <path d="M8.46856498,1.99999914 C8.35626931,1.99999914 8.2428039,2.03743103 8.14805443,2.11229481 L3.19066868,6.09996069 C3.07018479,6.19704965 3,6.34326797 3,6.49884426 C3,6.6532508 3.07018479,6.80063886 3.19066868,6.89655807 L8.126999,10.8631685 C8.34691134,11.0398002 8.66859164,11.0047078 8.84522336,10.7847955 C9.02185508,10.5648831 8.98676269,10.2432028 8.76685034,10.0665711 L4.32649255,6.49884426 L8.78907553,2.90889219 C9.00898787,2.73226046 9.04408027,2.41058017 8.86744854,2.19066782 C8.7656806,2.06550495 8.61829253,1.99999914 8.46856498,1.99999914 L8.46856498,1.99999914 Z" id="Shape" fill="#666666" fill-rule="nonzero" transform="translate(5.990000, 6.487860) scale(-1, 1) rotate(-180.000000) translate(-5.990000, -6.487860) "></path>
                                </g>
                            </g>
                            <g id="编组-7" transform="translate(0.000000, 56.000000)" fill-rule="nonzero">
                                <rect id="矩形" fill="#0099FF" x="0" y="0" width="20" height="20"></rect>
                                <path d="M14.7955122,6 L13.5929093,6 C13.3313624,6 13.0826365,6.12328013 12.9287854,6.3346175 L8.89788625,11.8193254 L7.0721864,9.33359541 C6.91833529,9.12477396 6.67217351,8.99897791 6.40806243,8.99897791 L5.20545958,8.99897791 C5.03878754,8.99897791 4.9413485,9.18515607 5.03878754,9.31849988 L8.23376229,13.6660115 C8.55941381,14.1113295 9.23379451,14.1113295 9.55944603,13.6660115 L14.95962,6.31952197 C15.0596233,6.18617816 14.9621842,6 14.7955122,6 Z" id="路径" fill="#FFFFFF"></path>
                            </g>
                        </g>
                        <g id="上传" transform="translate(0.000000, 77.000000)" fill-rule="nonzero">
                            <rect id="矩形" fill="#000000" opacity="0" x="0" y="0" width="12" height="12"></rect>
                            <path d="M11.0022165,7.48566073 L11.0022165,10.6532291 C11.0022165,10.9744433 10.741933,11.2348828 10.4207188,11.2348828 L1.57959304,11.2348828 C1.25837882,11.2348828 0.9977835,10.9744433 0.9977835,10.6532291 L0.9977835,7.48566073 C0.9977835,7.16444651 1.25822292,6.90400709 1.57943714,6.90400709 C1.90065136,6.90400709 2.16109078,7.16444651 2.16109078,7.48566073 L2.16109078,10.0715755 L9.83890922,10.0715755 L9.83890922,7.48566073 C9.83890922,7.16444651 10.0993486,6.90400709 10.4205629,6.90400709 C10.7417771,6.90400709 11.0022165,7.16444651 11.0022165,7.48566073 Z M4.09506755,4.1228647 L5.41833437,2.77182471 L5.41833437,7.80828998 C5.41833437,8.12951619 5.67877379,8.38994363 5.99998801,8.38994363 C6.32120223,8.38994363 6.58164165,8.12951619 6.58164165,7.80828998 L6.58164165,2.77188466 L7.90484851,4.12280474 C8.01878326,4.23913786 8.16959302,4.29746632 8.32052269,4.29746632 C8.46729118,4.29746632 8.61432349,4.2421958 8.72746678,4.13137893 C8.95695519,3.90655535 8.96082857,3.53830903 8.73606496,3.30883261 L6.41575812,0.939790816 C6.3063563,0.828050578 6.15657784,0.765117246 6.00020386,0.765117246 C5.84388984,0.765117246 5.6940994,0.828050578 5.58469758,0.939730863 L3.26417489,3.30877266 C3.03935132,3.53832102 3.04310477,3.90655536 3.27264115,4.13131897 C3.50211756,4.35614254 3.87036389,4.35228115 4.09506755,4.1228647 Z" id="形状" fill="#666666"></path>
                        </g>
                    </g>
                    <g id="形状-2" transform="translate(31.000000, 45.000000)" fill="#0099FF" fill-rule="nonzero">
                        <path d="M34.9933554,14.5456679 L34.9933554,14.5456675 C34.997204,14.489932 34.997204,14.4339466 34.9933554,14.3782111 L28.4319023,0.759309485 L28.4319023,0.759309549 C28.2596263,0.308904331 27.864206,0.0169844969 27.4268094,0.0173002839 L22.4786594,0.0173002839 L22.4786594,2.41367262 L26.5969634,2.41367262 L32.2821815,13.6102171 L21.8704493,13.6102171 L21.8704493,13.6102171 C21.3205274,13.6020168 20.8521122,14.0560714 20.78031,14.6669307 C20.78031,16.6533212 19.311328,18.2614892 17.4995835,18.2614892 C15.687839,18.2614892 14.2188569,16.6533212 14.2188569,14.6669307 L14.218857,14.6669307 C14.1481413,14.0538122 13.6779027,13.5978293 13.1261405,13.60733 L2.71698536,13.60733 L8.40220354,2.41367268 L22.4863909,2.41367268 L22.4863909,0.0144131479 L7.74502737,0.0144131479 L7.74502738,0.014413149 C7.246101,-0.0716767076 6.75906983,0.234489632 6.56468743,0.756422414 L0.00581151677,14.3580008 L0.00581152675,14.3580007 C-0.00193715212,14.437644 -0.00193719239,14.5179946 0.00581150679,14.5976379 L0.00581149276,14.5976381 C1.22805498e-12,14.668692 1.22805498e-12,14.7402367 0.00581152083,14.8112906 L0.00581152083,24.4025543 C0.00581152083,26.3889449 1.47479355,28 3.28653806,28 L31.7126289,28 C33.5243734,28 34.9933555,26.3889449 34.9933555,24.4025543 L34.9933555,14.8112906 L34.9933555,14.8112902 C35.0022148,14.724959 35.0022148,14.6377747 34.9933555,14.551443 L34.9933554,14.5456679 Z M8.40220343,2.4165593 L22.5508198,2.4165593 L22.5508198,0.0172997711 L7.74502726,0.0172997711 L8.39962627,2.41367211 L8.40220343,2.4165593 Z M32.807924,24.3996665 L32.807924,24.3996627 C32.8008506,25.0693296 32.3105424,25.6057796 31.7127859,25.5982763 C31.7127348,25.5982763 31.7126836,25.5982763 31.7126325,25.5982763 L3.28654163,25.5982763 L3.28654157,25.5982763 C2.6887891,25.6058709 2.19840763,25.0695035 2.19124612,24.3998365 C2.19124612,24.3997793 2.19124612,24.399722 2.19124612,24.3996647 L2.19124612,16.0094736 L12.293719,16.0094736 L12.2937188,16.0094736 C13.0338353,18.5163804 15.1324058,20.2026831 17.4892763,20.1843584 C19.8654192,20.1843584 21.9683829,18.495349 22.6822567,16.0094736 L32.807924,16.0094736 L32.807924,24.399664 L32.807924,24.3996665 Z" id="形状"></path>
                    </g>
                </g>
                <g id="收藏备份" transform="translate(75.000000, 0.000000)" fill-rule="nonzero">
                    <rect id="矩形" fill="#000000" opacity="0" x="0" y="0" width="11.2" height="11.2"></rect>
                    <path d="M5.6175,1.75 C5.61194455,1.74745366 5.60555545,1.74745366 5.6,1.75 L4.5885,3.808 C4.48329906,4.02613479 4.27282043,4.17439646 4.032,4.2 L1.7675,4.55 C1.76146267,4.55292401 1.75762807,4.55904185 1.75762807,4.56575 C1.75762807,4.57245815 1.76146267,4.57857599 1.7675,4.5815 L3.409,6.1845 C3.57750232,6.35040799 3.65343771,6.58868804 3.612,6.8215 L3.227,9.086 L3.2515,9.086 L5.2745,8.036 C5.48538685,7.92760542 5.73561315,7.92760542 5.9465,8.036 L7.9695,9.086 L7.994,9.086 L7.609,6.8215 C7.56522111,6.58787848 7.64298277,6.34800354 7.8155,6.1845 L9.45,4.5745 C9.45667,4.56769524 9.45667,4.55680476 9.45,4.55 L7.1855,4.2 C6.95116562,4.16873503 6.74844429,4.02130134 6.6465,3.808 L5.6175,1.75 Z M7.2555,3.5 L9.53400608,3.85 C9.80501088,3.88851512 10.0304938,4.0778766 10.1152693,4.33815227 C10.2000448,4.59842794 10.1293399,4.88426206 9.933,5.075 L8.2915,6.678 C8.2915,6.678 8.4175,7.441 8.673,8.96 C8.73816925,9.23572376 8.63070756,9.52354198 8.40078307,9.6890876 C8.17085859,9.85463323 7.86381711,9.8652573 7.623,9.716 L5.6,8.6485 C5.6,8.6485 4.9175,8.9985 3.5595,9.716 C3.31868289,9.8652573 3.01164141,9.85463323 2.78171693,9.6890876 C2.55179244,9.52354198 2.44433075,9.23572376 2.5095,8.96 L2.8945,6.6955 C2.8945,6.6955 2.3485,6.1495 1.2495,5.075 C1.05229918,4.88187252 0.983366593,4.59274614 1.0722178,4.33141905 C1.16106901,4.07009196 1.39194919,3.88290192 1.666,3.85 L3.9305,3.5175 C3.9305,3.5175 4.2805,2.8175 4.956,1.4525 C5.06596178,1.19437267 5.31942681,1.02684285 5.6,1.02684285 C5.88057319,1.02684285 6.13403822,1.19437267 6.244,1.4525 L7.2555,3.5 Z" id="形状" fill="#0099FF"></path>
                </g>
                <g id="点赞" transform="translate(63.000000, 0.000000)" fill-rule="nonzero">
                    <rect id="矩形" fill="#000000" opacity="0" x="0" y="0" width="11.2" height="11.2"></rect>
                    <path d="M9.79703659,5.14633394 C9.80014718,5.18332881 9.7972888,5.22136919 9.78682209,5.25924872 L9.03078068,8.45154424 C9.02036594,8.48866056 9.00334507,8.52378313 8.98046479,8.55537115 C8.89950539,8.71006601 8.77638489,8.8468264 8.61265859,8.94643107 C8.44672813,9.04736391 8.25400928,9.10063435 8.05737631,9.09991958 L8.05737631,9.09790899 L3.20115748,9.09593861 C3.18417534,9.09835132 3.16702506,9.1 3.14932833,9.1 C3.13158956,9.1 3.11431318,9.09839153 3.09720494,9.09589839 L1.80546956,9.09537564 C1.78709054,9.09833214 1.76849388,9.09987852 1.74985726,9.1 C1.65706934,9.1 1.56808178,9.06473886 1.50247082,9.00197363 C1.43685986,8.9392084 1.4,8.85408048 1.4,8.76531705 L1.40319466,4.74719144 C1.40320581,4.65841734 1.44008078,4.57328343 1.50570751,4.5105182 C1.57133424,4.44775297 1.66033693,4.41249782 1.75313599,4.41250849 C1.76755399,4.41250849 1.78171978,4.41359421 1.79571744,4.41524289 L2.95685009,4.41266933 L2.95685009,4.40635608 C4.02516947,4.33321078 4.87171223,3.49539757 4.90193539,2.46175282 C4.89920311,2.43267967 4.89731154,2.40344568 4.89731154,2.37368894 C4.89731154,1.83593631 5.35297088,1.4 5.91514689,1.4 C6.39821305,1.4 6.80179103,1.7222575 6.90603782,2.15401178 L6.91116609,2.15336839 C6.96983289,2.40463627 6.99951889,2.66130095 6.99969178,2.91876012 C7.00003639,3.31264096 6.93082591,3.7037477 6.79498136,4.07557367 L8.74784313,4.07758426 C8.76579208,4.07758426 8.7833627,4.07931337 8.80063909,4.08184671 C9.13406066,4.09435259 9.45520802,4.25861786 9.64440753,4.55031438 C9.76017818,4.72843244 9.81363814,4.93719466 9.79703659,5.14633394 L9.79703659,5.14633394 Z M2.1000508,8.42613037 L2.79976531,8.42641185 L2.80237148,5.08239715 L2.10332953,5.08388498 L2.1000508,8.42613037 Z M9.05385789,4.89999634 C8.98887772,4.79972759 8.8718625,4.74139053 8.74872587,4.74787504 L8.74872587,4.74690996 L8.74788517,4.74690996 L6.27938012,4.74445704 C6.08614569,4.74441263 5.92952286,4.59454696 5.92952286,4.40969366 C5.92952286,4.35649343 5.94288999,4.30630908 5.96600924,4.26163375 L5.96226812,4.25869829 C6.10402135,4.00588056 6.20487505,3.73395947 6.26138914,3.45221008 L6.26576078,3.45233072 C6.26576078,3.45233072 6.31229352,3.2715786 6.311663,2.92495274 C6.31120061,2.65030603 6.25886704,2.39962556 6.25886704,2.39962556 L6.25621884,2.39962556 C6.25647105,2.39480014 6.25705954,2.39001494 6.25705954,2.38506888 C6.25705954,2.2121878 6.11055752,2.07203999 5.92983812,2.07203999 C5.74911873,2.07203999 5.60261671,2.2121878 5.60261671,2.38506888 C5.60261671,2.39230701 5.60328927,2.3994245 5.60375165,2.40654199 L5.59921187,2.4065822 C5.59921187,2.4065822 5.60476049,2.66787859 5.55024111,2.93890624 C5.52707982,3.05387182 5.49454474,3.16107653 5.46491007,3.24600389 C5.46434725,3.24574034 5.46378676,3.24547225 5.46322867,3.24519965 C5.16868946,4.10645635 4.428201,4.77405293 3.50284263,4.99895763 L3.49947983,8.42665312 L8.05901568,8.42842244 C8.07444252,8.42842244 8.08949105,8.42970922 8.10437144,8.43163939 C8.15125884,8.42567878 8.19621931,8.40999247 8.23610911,8.38567728 C8.29251344,8.35146135 8.33654176,8.30146647 8.36221409,8.242483 L8.36313886,8.24296554 L9.09105886,5.16945573 L9.08824252,5.16865149 C9.1185989,5.07862978 9.10602367,4.9803913 9.05385789,4.90003656 L9.05385789,4.89999634 Z" id="形状" fill="#0099FF"></path>
                </g>
            </g>
            <g id="空状态-(1)" transform="translate(68.000000, 45.000000)" fill="#999999" fill-rule="nonzero">
                <path d="M47.8722185,17.3606438 C48.4532156,18.4505406 47.1811118,15.4285667 44.9288805,15.4285667 L10.0845911,15.4426042 C8.78499429,15.4426042 7.88404678,16.0958719 7.12771275,17.2976496 C6.37124126,18.503059 0,28.4879131 0,30.6016396 L0,44.171085 C0.00756059095,46.2920049 1.70498199,48.0057673 3.79259862,48.0000145 L51.2074014,48.0000145 C53.295018,48.0057673 54.9924394,46.2920049 55,44.171085 L55,30.6016396 C55,28.4879131 47.8722185,17.3606438 47.8722185,17.3606438 C47.8722185,17.3606438 46.8509889,15.4285667 47.8722185,17.3606438 Z M35.2982582,29.5973016 C34.4685808,29.5534435 33.7232634,30.1272592 33.5127044,30.9725499 C33.5127044,31.073043 33.5263549,31.1736797 33.5263549,31.274101 C33.5263549,34.8309831 30.7847883,37.7142743 27.4027402,37.7142743 C24.020692,37.7142743 21.2791254,34.8309831 21.2791254,31.274101 C21.2791254,31.1448956 21.2928442,31.0192792 21.2996694,30.8900738 C20.8625121,29.6044797 19.558275,29.5973016 19.558275,29.5973016 L3.38461538,29.5973016 L8.86112814,18.9898941 C8.86112814,18.9898941 9.86491773,17.0867698 11.2785636,17.1441227 L43.8989611,17.1441227 C45.0358431,17.1441227 45.2304993,17.5750946 46.0499388,18.9898941 L51.6153846,29.6044797 L35.3016708,29.6044797 L35.2982582,29.5973016 Z M15.7770971,9.13166049 L11.3670463,5.29508871 C10.8944065,4.88320127 10.8758191,4.19809207 11.3252428,3.76486125 C11.7747387,3.33189556 12.5225727,3.31466178 12.9949232,3.72674807 L17.4016471,7.56312099 C17.8742868,7.9743456 17.8936697,8.65859311 17.445114,9.09175765 C16.9965583,9.52472333 16.2498091,9.54268624 15.777314,9.1315942 L15.7770971,9.13166049 Z M26.7598739,8.24342038 C26.5314841,8.02459417 26.3989594,7.72309599 26.3915918,7.4055665 L26.2311745,1.23145396 C26.2141925,0.568884547 26.7330526,0.0175392277 27.3906835,0.000422177783 C28.0480958,-0.016988727 28.5950891,0.506293446 28.612071,1.16893632 L28.7688441,7.34304887 C28.7810574,7.82700777 28.5029984,8.2707804 28.0642031,8.4676317 C27.6255327,8.66474227 27.1122714,8.57626658 26.7635181,8.24342038 L26.7598739,8.24342038 Z M38.4095978,9.95742771 C38.2042152,9.73932572 38.0846723,9.43885148 38.0772696,9.12211207 C38.0700656,8.80544279 38.175445,8.49851494 38.3702732,8.2687106 L42.1572706,3.7999769 C42.564191,3.32169133 43.2404943,3.30287329 43.6680912,3.7578743 C44.0954919,4.21324141 44.1123733,4.97006316 43.7056491,5.44827551 L39.9183901,9.91342134 C39.7235608,10.1432365 39.455121,10.2770136 39.1721402,10.2853155 C38.8891677,10.2934625 38.6148862,10.1755234 38.4095978,9.95742771 L38.4095978,9.95742771 Z" id="形状"></path>
            </g>
        </g>
        <g id="编组-6" transform="translate(0.000000, 97.000000)" fill="#DEDEDE" fill-rule="nonzero">
            <path d="M2.1,3 C1.5,3.75 0.9,4.5 0.6,5.4 C0.15,6.3 3.64153152e-13,7.35 3.64153152e-13,8.4 L3.64153152e-13,16.05 L7.2,16.05 L7.2,8.4 L3.6,8.4 C3.6,7.2 3.9,6.15 4.5,5.25 C5.1,4.35 6,3.75 7.05,3.3 L7.05,5.32907052e-15 C6.15,0.3 5.25,0.75 4.35,1.2 C3.45,1.65 2.7,2.25 2.1,3 Z" id="路径"></path>
            <path d="M18.45,3.3 L18.45,5.32907052e-15 C17.4,0.3 16.5,0.75 15.75,1.2 C14.85,1.65 14.1,2.25 13.5,3 C12.9,3.75 12.3,4.5 12,5.4 C11.55,6.3 11.4,7.35 11.4,8.4 L11.4,16.05 L18.6,16.05 L18.6,8.4 L15,8.4 C15,7.2 15.3,6.15 15.9,5.25 C16.5,4.35 17.4,3.75 18.45,3.3 Z" id="路径"></path>
        </g>
        <g id="编组-10" transform="translate(24.000000, 97.000000)" fill="#DEDEDE" fill-rule="nonzero">
            <path d="M13.5,3 C12.9,3.75 12.3,4.5 12,5.4 C11.55,6.3 11.4,7.35 11.4,8.4 L11.4,16.05 L18.6,16.05 L18.6,8.4 L15,8.4 C15,7.2 15.3,6.15 15.9,5.25 C16.5,4.35 17.4,3.75 18.45,3.3 L18.45,3.55271368e-15 C17.55,0.3 16.65,0.75 15.75,1.2 C14.85,1.65 14.1,2.25 13.5,3 Z" id="路径备份" transform="translate(15.000000, 8.025000) rotate(-180.000000) translate(-15.000000, -8.025000) "></path>
            <path d="M7.05,3.3 L7.05,1.77635684e-15 C6,0.3 5.1,0.75 4.35,1.2 C3.45,1.65 2.7,2.25 2.1,3 C1.5,3.75 0.9,4.5 0.6,5.4 C0.15,6.3 0,7.35 0,8.4 L0,16.05 L7.2,16.05 L7.2,8.4 L3.6,8.4 C3.6,7.2 3.9,6.15 4.5,5.25 C5.1,4.35 6,3.75 7.05,3.3 Z" id="路径备份-2" transform="translate(3.600000, 8.025000) rotate(-180.000000) translate(-3.600000, -8.025000) "></path>
        </g>
    </g>
</svg>