<?xml version="1.0" encoding="UTF-8"?>
<svg width="24px" height="24px" viewBox="0 0 24 24" version="1.1" xmlns="http://www.w3.org/2000/svg" xmlns:xlink="http://www.w3.org/1999/xlink">
    <!-- Generator: Sketch 60.1 (88133) - https://sketch.com -->
    <title>画板备份@2x</title>
    <desc>Created with Sketch.</desc>
    <g id="画板备份" stroke="none" stroke-width="1" fill="none" fill-rule="evenodd">
        <g id="对勾" fill-rule="nonzero">
            <rect id="矩形" fill="#000000" opacity="0" x="0" y="0" width="24" height="24"></rect>
            <path d="M12,0 C5.35384615,0 0,5.35384615 0,12 C0,18.6461539 5.35384615,24 12,24 C18.6461539,24 24,18.6461539 24,12 C24,5.35384615 18.6461539,0 12,0 Z M12,22.1538461 C6.36923077,22.1538461 1.84615385,17.6307692 1.84615385,12 C1.84615385,6.36923077 6.36923077,1.84615385 12,1.84615385 C17.6307692,1.84615385 22.1538461,6.36923077 22.1538461,12 C22.1538461,17.6307692 17.6307692,22.1538461 12,22.1538461 Z M16.8,7.75384615 L11.9076923,13.5692308 C11.5384615,13.9384615 10.8923077,14.0307692 10.5230769,13.7538461 L7.01538462,11.0769231 C6.64615385,10.8 6,10.8923077 5.72307691,11.2615385 C5.44615383,11.6307692 5.53846153,12.2769231 5.9076923,12.5538461 L9.41538462,15.2307692 C9.87692309,15.6 10.5230769,15.7846154 11.1692308,15.7846154 C12,15.7846154 12.8307692,15.4153846 13.3846154,14.7692308 L18.2769231,8.95384615 C18.6461539,8.58461538 18.5538462,7.93846153 18.1846154,7.66153847 C17.7230769,7.2923077 17.1692308,7.2923077 16.8,7.75384615 L16.8,7.75384615 Z" id="形状" fill="#02A854"></path>
        </g>
    </g>
</svg>