<svg height="9" viewBox="0 0 10 9" width="10" xmlns="http://www.w3.org/2000/svg"><g fill="none"><path d="m0 0h8.455822v8.455822h-8.455822z" fill="#333" opacity="0"/><path d="m9.60888822.76871106h-9.22453269c-.21225169-.00003111-.38429919-.17210383-.38429919-.38435553s.1720475-.38432442.38429919-.38435553h9.22453269c.2122517.00003111.3842992.17210383.3842992.38435553s-.1720475.38432442-.3842992.38435553zm-2.28307184 3.84355529h-6.94146085c-.2122737 0-.38435553-.17208183-.38435553-.38435553s.17208183-.38435554.38435553-.38435554h6.91839952c.13731701 0 .26420316.07325775.33286166.19217777.06865851.11892001.06865851.26543552 0 .38435554-.0686585.11892002-.19554465.19217776-.33286166.19217776zm-1.78340965 3.84355529h-5.1580512c-.21225169-.00003112-.38429919-.17210383-.38429919-.38435553s.1720475-.38432442.38429919-.38435554h5.1580512c.13733042-.00002012.26423758.07323323.3329086.19216151.06867103.11892828.06867103.26545977 0 .38438806-.06867102.11892828-.19557818.19218162-.3329086.1921615z" fill="#fff"/></g></svg>